<?xml version="1.0" encoding="UTF-8" standalone="no"?>
<!-- Created with Inkscape (http://www.inkscape.org/) -->

<svg
   xmlns:dc="http://purl.org/dc/elements/1.1/"
   xmlns:cc="http://creativecommons.org/ns#"
   xmlns:rdf="http://www.w3.org/1999/02/22-rdf-syntax-ns#"
   xmlns:svg="http://www.w3.org/2000/svg"
   xmlns="http://www.w3.org/2000/svg"
   xmlns:sodipodi="http://sodipodi.sourceforge.net/DTD/sodipodi-0.dtd"
   xmlns:inkscape="http://www.inkscape.org/namespaces/inkscape"
   id="svg3004"
   version="1.1"
   inkscape:version="0.48.4 r9939"
   width="404.60876"
   height="249.46976"
   xml:space="preserve"
   sodipodi:docname="vel_update.svg"><metadata
     id="metadata3010"><rdf:RDF><cc:Work
         rdf:about=""><dc:format>image/svg+xml</dc:format><dc:type
           rdf:resource="http://purl.org/dc/dcmitype/StillImage" /><dc:title></dc:title></cc:Work></rdf:RDF></metadata><defs
     id="defs3008" /><sodipodi:namedview
     pagecolor="#ffffff"
     bordercolor="#666666"
     borderopacity="1"
     objecttolerance="10"
     gridtolerance="10"
     guidetolerance="10"
     inkscape:pageopacity="0"
     inkscape:pageshadow="2"
     inkscape:window-width="1855"
     inkscape:window-height="1056"
     id="namedview3006"
     showgrid="false"
     fit-margin-top="0"
     fit-margin-left="0"
     fit-margin-right="0"
     fit-margin-bottom="0"
     inkscape:zoom="2.5654412"
     inkscape:cx="184.52613"
     inkscape:cy="144.41241"
     inkscape:window-x="65"
     inkscape:window-y="24"
     inkscape:window-maximized="1"
     inkscape:current-layer="g3012" /><g
     id="g3012"
     inkscape:groupmode="layer"
     inkscape:label="ink_ext_XXXXXX"
     transform="matrix(1.25,0,0,-1.25,-65.485809,301.31268)"><g
       id="g3014"
       transform="scale(0.1,0.1)"><path
         d="m 1151.57,1979.67 c 43.63,0 79,35.37 79,79 0,43.62 -35.37,78.99 -79,78.99 -43.62,0 -78.99,-35.37 -78.99,-78.99 0,-43.63 35.37,-79 78.99,-79 z"
         style="fill:none;stroke:#231f20;stroke-width:5;stroke-linecap:butt;stroke-linejoin:miter;stroke-miterlimit:4;stroke-opacity:1;stroke-dasharray:none"
         id="path3016"
         inkscape:connector-curvature="0" /><path
         d="m 2944.49,1639.51 c 43.63,0 78.99,35.37 78.99,79 0,43.63 -35.36,78.99 -78.99,78.99 -43.63,0 -79,-35.36 -79,-78.99 0,-43.63 35.37,-79 79,-79 z"
         style="fill:none;stroke:#231f20;stroke-width:5;stroke-linecap:butt;stroke-linejoin:miter;stroke-miterlimit:4;stroke-opacity:1;stroke-dasharray:none"
         id="path3018"
         inkscape:connector-curvature="0" /><path
         d="m 2441.34,576.52 c 43.63,0 78.99,35.371 78.99,79 0,43.621 -35.36,78.992 -78.99,78.992 -43.63,0 -79,-35.371 -79,-78.992 0,-43.629 35.37,-79 79,-79 z"
         style="fill:none;stroke:#231f20;stroke-width:5;stroke-linecap:butt;stroke-linejoin:miter;stroke-miterlimit:4;stroke-opacity:1;stroke-dasharray:none"
         id="path3020"
         inkscape:connector-curvature="0" /><path
         d="m 1855.32,1052.21 c 22.48,9.32 39.72,28.72 46.09,52.56"
         style="fill:none;stroke:#231f20;stroke-width:5;stroke-linecap:butt;stroke-linejoin:miter;stroke-miterlimit:4;stroke-opacity:1;stroke-dasharray:20.684, 20.684;stroke-dashoffset:0"
         id="path3022"
         inkscape:connector-curvature="0" /><path
         d="m 1898.09,1155.45 c -9.32,22.48 -28.72,39.72 -52.55,46.09"
         style="fill:none;stroke:#231f20;stroke-width:5;stroke-linecap:butt;stroke-linejoin:miter;stroke-miterlimit:4;stroke-opacity:1;stroke-dasharray:20.684, 20.684;stroke-dashoffset:0"
         id="path3024"
         inkscape:connector-curvature="0" /><path
         d="m 1794.85,1198.22 c -22.48,-9.32 -39.72,-28.72 -46.09,-52.55"
         style="fill:none;stroke:#231f20;stroke-width:5;stroke-linecap:butt;stroke-linejoin:miter;stroke-miterlimit:4;stroke-opacity:1;stroke-dasharray:20.684, 20.684;stroke-dashoffset:0"
         id="path3026"
         inkscape:connector-curvature="0" /><path
         d="m 1752.08,1094.98 c 9.32,-22.48 28.72,-39.72 52.56,-46.09"
         style="fill:none;stroke:#231f20;stroke-width:5;stroke-linecap:butt;stroke-linejoin:miter;stroke-miterlimit:4;stroke-opacity:1;stroke-dasharray:20.684, 20.684;stroke-dashoffset:0"
         id="path3028"
         inkscape:connector-curvature="0" /><path
         d="m 1903.42,1114.9 c 0.44,3.38 0.66,6.82 0.66,10.32 0,3.49 -0.22,6.94 -0.66,10.31 m -68.02,68.02 c -3.38,0.44 -6.82,0.66 -10.31,0.66 -3.5,0 -6.94,-0.22 -10.32,-0.66 m -68.01,-68.02 c -0.44,-3.37 -0.67,-6.82 -0.67,-10.31 0,-3.5 0.23,-6.94 0.67,-10.32 m 68.01,-68.01 c 3.38,-0.44 6.82,-0.67 10.32,-0.67 3.49,0 6.93,0.23 10.31,0.67"
         style="fill:none;stroke:#231f20;stroke-width:5;stroke-linecap:butt;stroke-linejoin:miter;stroke-miterlimit:4;stroke-opacity:1;stroke-dasharray:none"
         id="path3030"
         inkscape:connector-curvature="0" /><path
         d="m 1155.12,1978.59 0,-410.95"
         style="fill:none;stroke:#231f20;stroke-width:20;stroke-linecap:butt;stroke-linejoin:miter;stroke-miterlimit:4;stroke-opacity:1;stroke-dasharray:none"
         id="path3032"
         inkscape:connector-curvature="0" /><path
         d="m 1155.12,1498.4 39.01,107.22 -78.03,0 39.02,-107.22"
         style="fill:#231f20;fill-opacity:1;fill-rule:nonzero;stroke:none"
         id="path3034"
         inkscape:connector-curvature="0" /><path
         d="m 1160.87,1487.26 232.02,-253.38"
         style="fill:none;stroke:#231f20;stroke-width:20;stroke-linecap:round;stroke-linejoin:miter;stroke-miterlimit:4;stroke-opacity:1;stroke-dasharray:none"
         id="path3036"
         inkscape:connector-curvature="0" /><path
         d="m 1439.65,1182.81 -43.63,105.42 c 0,0 -3.13,-54.35 -57.55,-52.69 l 101.18,-52.73"
         style="fill:#231f20;fill-opacity:1;fill-rule:nonzero;stroke:none"
         id="path3038"
         inkscape:connector-curvature="0" /><path
         d="m 1450.09,1180.31 225.11,-41.28"
         style="fill:none;stroke:#231f20;stroke-width:20;stroke-linecap:round;stroke-linejoin:miter;stroke-miterlimit:4;stroke-opacity:1;stroke-dasharray:none"
         id="path3040"
         inkscape:connector-curvature="0" /><path
         d="m 1743.31,1126.54 -98.42,57.71 -14.08,-76.75 112.5,19.04"
         style="fill:#231f20;fill-opacity:1;fill-rule:nonzero;stroke:none"
         id="path3042"
         inkscape:connector-curvature="0" /></g><text
       xml:space="preserve"
       style="font-size:12px;font-style:normal;font-weight:normal;line-height:125%;letter-spacing:0px;word-spacing:0px;fill:#000000;fill-opacity:1;stroke:none;font-family:Sans;-inkscape-font-specification:Sans"
       x="60.184578"
       y="-221.71625"
       id="text3044"
       sodipodi:linespacing="125%"
       transform="scale(1,-1)"><tspan
         sodipodi:role="line"
         id="tspan3046"
         x="60.184578"
         y="-221.71625">particle position at t</tspan></text>
<text
       xml:space="preserve"
       style="font-size:12px;font-style:normal;font-weight:normal;line-height:125%;letter-spacing:0px;word-spacing:0px;fill:#000000;fill-opacity:1;stroke:none;font-family:Sans;-inkscape-font-specification:Sans"
       x="160.16679"
       y="-132.33862"
       id="text3044-3"
       sodipodi:linespacing="125%"
       transform="scale(1,-1)"><tspan
         sodipodi:role="line"
         id="tspan3046-6"
         x="160.16679"
         y="-132.33862">particle position at t+1</tspan></text>
<text
       xml:space="preserve"
       style="font-size:12px;font-style:normal;font-weight:normal;line-height:125%;letter-spacing:0px;word-spacing:0px;fill:#000000;fill-opacity:1;stroke:none;font-family:Sans;-inkscape-font-specification:Sans"
       x="243.11548"
       y="-192.52319"
       id="text3044-3-7"
       sodipodi:linespacing="125%"
       transform="scale(1,-1)"><tspan
         sodipodi:role="line"
         id="tspan3046-6-5"
         x="243.11548"
         y="-192.52319">global best position</tspan></text>
<text
       xml:space="preserve"
       style="font-size:20px;font-style:normal;font-weight:normal;line-height:125%;letter-spacing:0px;word-spacing:0px;fill:#000000;fill-opacity:1;stroke:none;font-family:Sans;-inkscape-font-specification:Sans"
       x="300.14331"
       y="316.12497"
       id="text3090"
       sodipodi:linespacing="125%"
       transform="matrix(0.8,0,0,-0.8,0,283.46)"><tspan
         sodipodi:role="line"
         id="tspan3092"
         x="300.14331"
         y="316.12497" /></text>
<text
       xml:space="preserve"
       style="font-size:12px;font-style:normal;font-weight:normal;line-height:125%;letter-spacing:0px;word-spacing:0px;fill:#000000;fill-opacity:1;stroke:none;font-family:Sans;-inkscape-font-specification:Sans"
       x="216.29749"
       y="-82.756508"
       id="text3044-3-3"
       sodipodi:linespacing="125%"
       transform="scale(1,-1)"><tspan
         sodipodi:role="line"
         id="tspan3046-6-56"
         x="216.29749"
         y="-82.756508">personal best position</tspan></text>
<rect
       style="fill:none;stroke:none"
       id="rect3115"
       width="404.60876"
       height="249.46976"
       x="65.485809"
       y="53.012321"
       transform="matrix(0.8,0,0,-0.8,0,283.46)" /><text
       xml:space="preserve"
       style="font-size:15px;font-style:normal;font-weight:normal;line-height:125%;letter-spacing:0px;word-spacing:0px;fill:#000000;fill-opacity:1;stroke:none;font-family:Sans;-inkscape-font-specification:Sans"
       x="94.33075"
       y="75.230728"
       id="text3117"
       sodipodi:linespacing="125%"
       transform="matrix(0.8,0,0,-0.8,52.388647,241.05014)"><tspan
         sodipodi:role="line"
         id="tspan3119"
         x="94.33075"
         y="75.230728" /></text>
<text
       xml:space="preserve"
       style="font-size:15px;font-style:normal;font-weight:normal;line-height:125%;letter-spacing:0px;word-spacing:0px;fill:#000000;fill-opacity:1;stroke:none;font-family:Sans;-inkscape-font-specification:Sans"
       x="38.589851"
       y="166.4431"
       id="text3125"
       sodipodi:linespacing="125%"
       transform="matrix(0.8,0,0,-0.8,52.388647,241.05014)"><tspan
         sodipodi:role="line"
         id="tspan3127"
         x="38.589851"
         y="166.4431" /><tspan
         sodipodi:role="line"
         x="38.589851"
         y="185.1931"
         id="tspan3129" /></text>
<flowRoot
       xml:space="preserve"
       id="flowRoot3131"
       style="font-size:15px;font-style:normal;font-weight:normal;line-height:125%;letter-spacing:0px;word-spacing:0px;fill:#000000;fill-opacity:1;stroke:none;font-family:Sans;-inkscape-font-specification:Sans"
       transform="matrix(0.8,0,0,-0.8,39.291484,243.233)"><flowRegion
         id="flowRegion3133"><rect
           id="rect3135"
           width="111.48182"
           height="81.857277"
           x="24.167383"
           y="161.76555" /></flowRegion><flowPara
         id="flowPara3137">displacement due to best known positions</flowPara></flowRoot><flowRoot
       xml:space="preserve"
       id="flowRoot3139"
       style="font-size:15px;font-style:normal;font-weight:normal;line-height:125%;letter-spacing:0px;word-spacing:0px;fill:#000000;fill-opacity:1;stroke:none;font-family:Sans;-inkscape-font-specification:Sans"
       transform="matrix(0.8,0,0,-0.8,61.431926,235.43707)"><flowRegion
         id="flowRegion3141"><rect
           id="rect3143"
           width="64.706223"
           height="55.351093"
           x="5.0673542"
           y="55.740898" /></flowRegion><flowPara
         id="flowPara3145">own velocity</flowPara><flowPara
         id="flowPara3147" /></flowRoot></g></svg>